mtllib Doormat.mtl
usemtl phong1SG
# Blender v2.78 (sub 0) OBJ File: ''
# www.blender.org
o Doormat_Q
v -0.453000 -0.010000 0.276000
v -0.453000 0.009712 0.276000
v -0.453000 0.009712 -0.275228
v -0.453000 -0.010000 -0.275228
v 0.452832 0.009712 -0.275228
v 0.452832 -0.010000 -0.275228
v 0.452832 0.009712 0.276000
v 0.452832 -0.010000 0.276000
vt 0.4976 0.1776
vt 0.0018 0.1599
vt 0.4976 0.1599
vt 0.0018 0.1776
vt 0.8166 0.0195
vt 0.0018 0.0018
vt 0.8166 0.0018
vt 0.0018 0.0195
vt 0.0018 0.0454
vt 0.4976 0.0631
vt 0.0018 0.0631
vt 0.4976 0.0454
vt 0.9964 0.0413
vt 0.1817 0.0236
vt 0.9964 0.0236
vt 0.1817 0.0413
vt 0.0018 0.1817
vt 0.4976 0.9964
vt 0.0018 0.9964
vt 0.4976 0.1817
vt 0.9972 0.9964
vt 0.5014 0.1817
vt 0.9972 0.1817
vt 0.5014 0.9964
vn -1.0000 0.0000 0.0000
vn 0.0000 0.0000 -1.0000
vn 1.0000 0.0000 0.0000
vn 0.0000 0.0000 1.0000
vn 0.0000 -1.0000 -0.0000
vn 0.0000 1.0000 0.0000
s 1
f 2/1/1 4/2/1 1/3/1
f 2/1/1 3/4/1 4/2/1
s 2
f 3/5/2 6/6/2 4/7/2
f 3/5/2 5/8/2 6/6/2
s 3
f 5/9/3 8/10/3 6/11/3
f 5/9/3 7/12/3 8/10/3
s 4
f 7/13/4 1/14/4 8/15/4
f 7/13/4 2/16/4 1/14/4
s 5
f 6/17/5 1/18/5 4/19/5
f 6/17/5 8/20/5 1/18/5
s 6
f 3/21/6 7/22/6 5/23/6
f 3/21/6 2/24/6 7/22/6
